<mxfile host="65bd71144e">
    <diagram id="DsNq9FNWS8PqslW3tk7o" name="Page-1">
        <mxGraphModel dx="680" dy="551" grid="1" gridSize="10" guides="1" tooltips="1" connect="1" arrows="1" fold="1" page="1" pageScale="1" pageWidth="100" pageHeight="100" math="0" shadow="0">
            <root>
                <mxCell id="0"/>
                <mxCell id="1" parent="0"/>
                <mxCell id="2" value="" style="rounded=1;whiteSpace=wrap;html=1;fillColor=#f5f5f5;fontColor=#333333;strokeColor=none;" vertex="1" parent="1">
                    <mxGeometry x="-20" width="430" height="400" as="geometry"/>
                </mxCell>
                <mxCell id="pacOo1ggL5fjdkUr05J3-1" value="" style="endArrow=none;html=1;fontFamily=Courier New;fontStyle=1;labelBorderColor=none;spacing=2;fontSize=12;entryX=0.006;entryY=-0.003;entryDx=0;entryDy=0;entryPerimeter=0;" parent="1" target="pacOo1ggL5fjdkUr05J3-12" edge="1">
                    <mxGeometry x="19.999999999999943" y="20" width="50" height="50" as="geometry">
                        <mxPoint x="20" y="120" as="sourcePoint"/>
                        <mxPoint x="20" y="40" as="targetPoint"/>
                    </mxGeometry>
                </mxCell>
                <mxCell id="pacOo1ggL5fjdkUr05J3-2" value="" style="endArrow=none;html=1;fontFamily=Courier New;fontStyle=1;labelBorderColor=none;spacing=2;fontSize=12;" parent="1" edge="1">
                    <mxGeometry x="19.999999999999943" y="20" width="50" height="50" as="geometry">
                        <mxPoint x="180" y="120" as="sourcePoint"/>
                        <mxPoint x="180" y="40" as="targetPoint"/>
                    </mxGeometry>
                </mxCell>
                <mxCell id="pacOo1ggL5fjdkUr05J3-3" value="" style="endArrow=none;html=1;fontFamily=Courier New;fontStyle=1;labelBorderColor=none;spacing=2;fontSize=12;entryX=1.005;entryY=0.02;entryDx=0;entryDy=0;entryPerimeter=0;" parent="1" target="ITe-Zb040aeb4aDEISld-87" edge="1">
                    <mxGeometry x="19.999999999999943" y="20" width="50" height="50" as="geometry">
                        <mxPoint x="20" y="40" as="sourcePoint"/>
                        <mxPoint x="200" y="40" as="targetPoint"/>
                    </mxGeometry>
                </mxCell>
                <mxCell id="pacOo1ggL5fjdkUr05J3-4" value="" style="endArrow=none;html=1;fontFamily=Courier New;fontStyle=1;labelBorderColor=none;spacing=2;fontSize=12;entryX=0.99;entryY=0.008;entryDx=0;entryDy=0;entryPerimeter=0;" parent="1" target="ITe-Zb040aeb4aDEISld-88" edge="1">
                    <mxGeometry x="19.999999999999943" y="20" width="50" height="50" as="geometry">
                        <mxPoint x="19.999999999999943" y="60" as="sourcePoint"/>
                        <mxPoint x="200" y="60" as="targetPoint"/>
                    </mxGeometry>
                </mxCell>
                <mxCell id="pacOo1ggL5fjdkUr05J3-5" value="" style="endArrow=none;html=1;fontFamily=Courier New;fontStyle=1;labelBorderColor=none;spacing=2;fontSize=12;entryX=0.998;entryY=0.962;entryDx=0;entryDy=0;entryPerimeter=0;" parent="1" target="ITe-Zb040aeb4aDEISld-88" edge="1">
                    <mxGeometry x="19.999999999999943" y="20" width="50" height="50" as="geometry">
                        <mxPoint x="19.999999999999943" y="80" as="sourcePoint"/>
                        <mxPoint x="200" y="80" as="targetPoint"/>
                    </mxGeometry>
                </mxCell>
                <mxCell id="pacOo1ggL5fjdkUr05J3-7" value="" style="endArrow=none;html=1;fontFamily=Courier New;fontStyle=1;labelBorderColor=none;spacing=2;fontSize=12;" parent="1" edge="1">
                    <mxGeometry x="19.999999999999943" y="20" width="50" height="50" as="geometry">
                        <mxPoint x="69.77000000000001" y="80" as="sourcePoint"/>
                        <mxPoint x="69.77000000000001" y="40" as="targetPoint"/>
                    </mxGeometry>
                </mxCell>
                <mxCell id="pacOo1ggL5fjdkUr05J3-8" value="" style="endArrow=none;html=1;fontFamily=Courier New;fontStyle=1;labelBorderColor=none;spacing=2;fontSize=12;" parent="1" edge="1">
                    <mxGeometry x="19.999999999999943" y="20" width="50" height="50" as="geometry">
                        <mxPoint x="149.76999999999998" y="80" as="sourcePoint"/>
                        <mxPoint x="149.76999999999998" y="40" as="targetPoint"/>
                    </mxGeometry>
                </mxCell>
                <mxCell id="pacOo1ggL5fjdkUr05J3-9" value="" style="endArrow=none;html=1;fontFamily=Courier New;fontStyle=1;labelBorderColor=none;spacing=2;fontSize=12;" parent="1" edge="1">
                    <mxGeometry x="19.999999999999943" y="20" width="50" height="50" as="geometry">
                        <mxPoint x="109.77000000000001" y="80" as="sourcePoint"/>
                        <mxPoint x="109.77000000000001" y="40" as="targetPoint"/>
                    </mxGeometry>
                </mxCell>
                <mxCell id="pacOo1ggL5fjdkUr05J3-12" value="(0,1)" style="text;html=1;resizable=0;autosize=1;align=center;verticalAlign=middle;points=[];fillColor=none;strokeColor=none;rounded=0;fontFamily=Courier New;fontStyle=1;labelBorderColor=none;spacing=2;fontSize=12;" parent="1" vertex="1">
                    <mxGeometry x="20" y="40" width="50" height="20" as="geometry"/>
                </mxCell>
                <mxCell id="pacOo1ggL5fjdkUr05J3-14" value="(0,2)" style="text;html=1;resizable=0;autosize=1;align=center;verticalAlign=middle;points=[];fillColor=none;strokeColor=none;rounded=0;fontFamily=Courier New;fontStyle=1;labelBorderColor=none;spacing=2;fontSize=12;" parent="1" vertex="1">
                    <mxGeometry x="20" y="60" width="50" height="20" as="geometry"/>
                </mxCell>
                <mxCell id="pacOo1ggL5fjdkUr05J3-20" value="&lt;div&gt;INSERT INTO tbl(col)&lt;/div&gt;&lt;div&gt;VALUES ('a'), ('b');&lt;/div&gt;" style="text;html=1;resizable=0;autosize=1;align=left;verticalAlign=middle;points=[];fillColor=none;strokeColor=none;rounded=0;fontFamily=Courier New;fontStyle=1;labelBorderColor=none;spacing=2;fontSize=12;" parent="1" vertex="1">
                    <mxGeometry x="225" y="40" width="160" height="40" as="geometry"/>
                </mxCell>
                <mxCell id="ITe-Zb040aeb4aDEISld-83" value="&lt;div&gt;...&lt;/div&gt;" style="text;html=1;resizable=0;autosize=1;align=center;verticalAlign=middle;points=[];fillColor=none;strokeColor=none;rounded=0;fontFamily=Courier New;fontStyle=1;labelBorderColor=none;spacing=2;fontSize=12;" parent="1" vertex="1">
                    <mxGeometry x="70" y="40" width="40" height="20" as="geometry"/>
                </mxCell>
                <mxCell id="ITe-Zb040aeb4aDEISld-84" value="&lt;div&gt;...&lt;/div&gt;" style="text;html=1;resizable=0;autosize=1;align=center;verticalAlign=middle;points=[];fillColor=none;strokeColor=none;rounded=0;fontFamily=Courier New;fontStyle=1;labelBorderColor=none;spacing=2;fontSize=12;" parent="1" vertex="1">
                    <mxGeometry x="70" y="60" width="40" height="20" as="geometry"/>
                </mxCell>
                <mxCell id="ITe-Zb040aeb4aDEISld-85" value="&lt;div&gt;...&lt;/div&gt;" style="text;html=1;resizable=0;autosize=1;align=center;verticalAlign=middle;points=[];fillColor=none;strokeColor=none;rounded=0;fontFamily=Courier New;fontStyle=1;labelBorderColor=none;spacing=2;fontSize=12;" parent="1" vertex="1">
                    <mxGeometry x="110" y="40" width="40" height="20" as="geometry"/>
                </mxCell>
                <mxCell id="ITe-Zb040aeb4aDEISld-86" value="&lt;div&gt;...&lt;/div&gt;" style="text;html=1;resizable=0;autosize=1;align=center;verticalAlign=middle;points=[];fillColor=none;strokeColor=none;rounded=0;fontFamily=Courier New;fontStyle=1;labelBorderColor=none;spacing=2;fontSize=12;" parent="1" vertex="1">
                    <mxGeometry x="110" y="60" width="40" height="20" as="geometry"/>
                </mxCell>
                <mxCell id="ITe-Zb040aeb4aDEISld-87" value="a" style="text;html=1;resizable=0;autosize=1;align=center;verticalAlign=middle;points=[];fillColor=none;strokeColor=none;rounded=0;fontFamily=Courier New;fontStyle=1;labelBorderColor=none;spacing=2;fontSize=12;" parent="1" vertex="1">
                    <mxGeometry x="150" y="40" width="30" height="20" as="geometry"/>
                </mxCell>
                <mxCell id="ITe-Zb040aeb4aDEISld-88" value="b" style="text;html=1;resizable=0;autosize=1;align=center;verticalAlign=middle;points=[];fillColor=none;strokeColor=none;rounded=0;fontFamily=Courier New;fontStyle=1;labelBorderColor=none;spacing=2;fontSize=12;" parent="1" vertex="1">
                    <mxGeometry x="150" y="60" width="30" height="20" as="geometry"/>
                </mxCell>
                <mxCell id="ITe-Zb040aeb4aDEISld-89" value="ctid" style="text;html=1;resizable=0;autosize=1;align=center;verticalAlign=middle;points=[];fillColor=none;strokeColor=none;rounded=0;fontFamily=Courier New;fontStyle=1;labelBorderColor=none;spacing=2;fontSize=12;" parent="1" vertex="1">
                    <mxGeometry x="20" y="20" width="50" height="20" as="geometry"/>
                </mxCell>
                <mxCell id="ITe-Zb040aeb4aDEISld-90" value="col" style="text;html=1;resizable=0;autosize=1;align=center;verticalAlign=middle;points=[];fillColor=none;strokeColor=none;rounded=0;fontFamily=Courier New;fontStyle=1;labelBorderColor=none;spacing=2;fontSize=12;" parent="1" vertex="1">
                    <mxGeometry x="145" y="20" width="40" height="20" as="geometry"/>
                </mxCell>
                <mxCell id="ITe-Zb040aeb4aDEISld-109" value="" style="endArrow=none;html=1;fontFamily=Courier New;fontStyle=1;labelBorderColor=none;spacing=2;fontSize=12;entryX=0.006;entryY=-0.003;entryDx=0;entryDy=0;entryPerimeter=0;" parent="1" target="ITe-Zb040aeb4aDEISld-117" edge="1">
                    <mxGeometry x="19.999999999999943" y="20" width="50" height="50" as="geometry">
                        <mxPoint x="20" y="240" as="sourcePoint"/>
                        <mxPoint x="20" y="160" as="targetPoint"/>
                    </mxGeometry>
                </mxCell>
                <mxCell id="ITe-Zb040aeb4aDEISld-110" value="" style="endArrow=none;html=1;fontFamily=Courier New;fontStyle=1;labelBorderColor=none;spacing=2;fontSize=12;" parent="1" edge="1">
                    <mxGeometry x="19.999999999999943" y="20" width="50" height="50" as="geometry">
                        <mxPoint x="180" y="240" as="sourcePoint"/>
                        <mxPoint x="180" y="160" as="targetPoint"/>
                    </mxGeometry>
                </mxCell>
                <mxCell id="ITe-Zb040aeb4aDEISld-111" value="" style="endArrow=none;html=1;fontFamily=Courier New;fontStyle=1;labelBorderColor=none;spacing=2;fontSize=12;entryX=1.005;entryY=0.02;entryDx=0;entryDy=0;entryPerimeter=0;" parent="1" target="ITe-Zb040aeb4aDEISld-124" edge="1">
                    <mxGeometry x="19.999999999999943" y="20" width="50" height="50" as="geometry">
                        <mxPoint x="20" y="160" as="sourcePoint"/>
                        <mxPoint x="200" y="160" as="targetPoint"/>
                    </mxGeometry>
                </mxCell>
                <mxCell id="ITe-Zb040aeb4aDEISld-112" value="" style="endArrow=none;html=1;fontFamily=Courier New;fontStyle=1;labelBorderColor=none;spacing=2;fontSize=12;entryX=0.99;entryY=0.008;entryDx=0;entryDy=0;entryPerimeter=0;" parent="1" target="ITe-Zb040aeb4aDEISld-125" edge="1">
                    <mxGeometry x="19.999999999999943" y="20" width="50" height="50" as="geometry">
                        <mxPoint x="20" y="180" as="sourcePoint"/>
                        <mxPoint x="200" y="180" as="targetPoint"/>
                    </mxGeometry>
                </mxCell>
                <mxCell id="ITe-Zb040aeb4aDEISld-113" value="" style="endArrow=none;html=1;fontFamily=Courier New;fontStyle=1;labelBorderColor=none;spacing=2;fontSize=12;entryX=0.998;entryY=0.962;entryDx=0;entryDy=0;entryPerimeter=0;" parent="1" target="ITe-Zb040aeb4aDEISld-125" edge="1">
                    <mxGeometry x="19.999999999999943" y="20" width="50" height="50" as="geometry">
                        <mxPoint x="20" y="200" as="sourcePoint"/>
                        <mxPoint x="200" y="200" as="targetPoint"/>
                    </mxGeometry>
                </mxCell>
                <mxCell id="ITe-Zb040aeb4aDEISld-114" value="" style="endArrow=none;html=1;fontFamily=Courier New;fontStyle=1;labelBorderColor=none;spacing=2;fontSize=12;" parent="1" edge="1">
                    <mxGeometry x="19.999999999999943" y="20" width="50" height="50" as="geometry">
                        <mxPoint x="69.76999999999998" y="200" as="sourcePoint"/>
                        <mxPoint x="69.76999999999998" y="160" as="targetPoint"/>
                    </mxGeometry>
                </mxCell>
                <mxCell id="ITe-Zb040aeb4aDEISld-115" value="" style="endArrow=none;html=1;fontFamily=Courier New;fontStyle=1;labelBorderColor=none;spacing=2;fontSize=12;" parent="1" edge="1">
                    <mxGeometry x="19.999999999999943" y="20" width="50" height="50" as="geometry">
                        <mxPoint x="149.76999999999998" y="200" as="sourcePoint"/>
                        <mxPoint x="149.76999999999998" y="160" as="targetPoint"/>
                    </mxGeometry>
                </mxCell>
                <mxCell id="ITe-Zb040aeb4aDEISld-116" value="" style="endArrow=none;html=1;fontFamily=Courier New;fontStyle=1;labelBorderColor=none;spacing=2;fontSize=12;" parent="1" edge="1">
                    <mxGeometry x="19.999999999999943" y="20" width="50" height="50" as="geometry">
                        <mxPoint x="109.76999999999998" y="200" as="sourcePoint"/>
                        <mxPoint x="109.76999999999998" y="160" as="targetPoint"/>
                    </mxGeometry>
                </mxCell>
                <mxCell id="ITe-Zb040aeb4aDEISld-117" value="(0,1)" style="text;html=1;resizable=0;autosize=1;align=center;verticalAlign=middle;points=[];fillColor=#fad7ac;strokeColor=#b46504;rounded=0;fontFamily=Courier New;fontStyle=1;labelBorderColor=none;spacing=2;fontSize=12;" parent="1" vertex="1">
                    <mxGeometry x="20" y="160" width="50" height="20" as="geometry"/>
                </mxCell>
                <mxCell id="ITe-Zb040aeb4aDEISld-118" value="(0,2)" style="text;html=1;resizable=0;autosize=1;align=center;verticalAlign=middle;points=[];fillColor=none;strokeColor=none;rounded=0;fontFamily=Courier New;fontStyle=1;labelBorderColor=none;spacing=2;fontSize=12;" parent="1" vertex="1">
                    <mxGeometry x="20" y="180" width="50" height="20" as="geometry"/>
                </mxCell>
                <mxCell id="ITe-Zb040aeb4aDEISld-119" value="&lt;div&gt;DELETE FROM tbl&lt;/div&gt;&lt;div&gt;WHERE col = 'a';&lt;/div&gt;" style="text;html=1;resizable=0;autosize=1;align=left;verticalAlign=middle;points=[];fillColor=none;strokeColor=none;rounded=0;fontFamily=Courier New;fontStyle=1;labelBorderColor=none;spacing=2;fontSize=12;" parent="1" vertex="1">
                    <mxGeometry x="240" y="160" width="130" height="40" as="geometry"/>
                </mxCell>
                <mxCell id="ITe-Zb040aeb4aDEISld-120" value="&lt;div&gt;...&lt;/div&gt;" style="text;html=1;resizable=0;autosize=1;align=center;verticalAlign=middle;points=[];fillColor=#fad7ac;strokeColor=#b46504;rounded=0;fontFamily=Courier New;fontStyle=1;labelBorderColor=none;spacing=2;fontSize=12;" parent="1" vertex="1">
                    <mxGeometry x="70" y="160" width="40" height="20" as="geometry"/>
                </mxCell>
                <mxCell id="ITe-Zb040aeb4aDEISld-121" value="&lt;div&gt;...&lt;/div&gt;" style="text;html=1;resizable=0;autosize=1;align=center;verticalAlign=middle;points=[];fillColor=none;strokeColor=none;rounded=0;fontFamily=Courier New;fontStyle=1;labelBorderColor=none;spacing=2;fontSize=12;" parent="1" vertex="1">
                    <mxGeometry x="70" y="180" width="40" height="20" as="geometry"/>
                </mxCell>
                <mxCell id="ITe-Zb040aeb4aDEISld-122" value="&lt;div&gt;...&lt;/div&gt;" style="text;html=1;resizable=0;autosize=1;align=center;verticalAlign=middle;points=[];fillColor=#fad7ac;strokeColor=#b46504;rounded=0;fontFamily=Courier New;fontStyle=1;labelBorderColor=none;spacing=2;fontSize=12;" parent="1" vertex="1">
                    <mxGeometry x="110" y="160" width="40" height="20" as="geometry"/>
                </mxCell>
                <mxCell id="ITe-Zb040aeb4aDEISld-123" value="&lt;div&gt;...&lt;/div&gt;" style="text;html=1;resizable=0;autosize=1;align=center;verticalAlign=middle;points=[];fillColor=none;strokeColor=none;rounded=0;fontFamily=Courier New;fontStyle=1;labelBorderColor=none;spacing=2;fontSize=12;" parent="1" vertex="1">
                    <mxGeometry x="110" y="180" width="40" height="20" as="geometry"/>
                </mxCell>
                <mxCell id="ITe-Zb040aeb4aDEISld-124" value="a" style="text;html=1;resizable=0;autosize=1;align=center;verticalAlign=middle;points=[];fillColor=#fad7ac;strokeColor=#b46504;rounded=0;fontFamily=Courier New;fontStyle=1;labelBorderColor=none;spacing=2;fontSize=12;" parent="1" vertex="1">
                    <mxGeometry x="150" y="160" width="30" height="20" as="geometry"/>
                </mxCell>
                <mxCell id="ITe-Zb040aeb4aDEISld-125" value="b" style="text;html=1;resizable=0;autosize=1;align=center;verticalAlign=middle;points=[];fillColor=none;strokeColor=none;rounded=0;fontFamily=Courier New;fontStyle=1;labelBorderColor=none;spacing=2;fontSize=12;" parent="1" vertex="1">
                    <mxGeometry x="150" y="180" width="30" height="20" as="geometry"/>
                </mxCell>
                <mxCell id="ITe-Zb040aeb4aDEISld-126" value="ctid" style="text;html=1;resizable=0;autosize=1;align=center;verticalAlign=middle;points=[];fillColor=none;strokeColor=none;rounded=0;fontFamily=Courier New;fontStyle=1;labelBorderColor=none;spacing=2;fontSize=12;" parent="1" vertex="1">
                    <mxGeometry x="20" y="140" width="50" height="20" as="geometry"/>
                </mxCell>
                <mxCell id="ITe-Zb040aeb4aDEISld-127" value="col" style="text;html=1;resizable=0;autosize=1;align=center;verticalAlign=middle;points=[];fillColor=none;strokeColor=none;rounded=0;fontFamily=Courier New;fontStyle=1;labelBorderColor=none;spacing=2;fontSize=12;" parent="1" vertex="1">
                    <mxGeometry x="145" y="140" width="40" height="20" as="geometry"/>
                </mxCell>
                <mxCell id="ITe-Zb040aeb4aDEISld-128" value="Not visible" style="text;html=1;align=center;verticalAlign=middle;resizable=0;points=[];autosize=1;strokeColor=none;fontFamily=Courier New;fontStyle=1;labelBorderColor=none;spacing=2;fontSize=10;" parent="1" vertex="1">
                    <mxGeometry x="260" y="140" width="90" height="20" as="geometry"/>
                </mxCell>
                <mxCell id="ITe-Zb040aeb4aDEISld-129" style="edgeStyle=none;rounded=0;orthogonalLoop=1;jettySize=auto;html=1;entryX=0;entryY=0.5;entryDx=0;entryDy=0;entryPerimeter=0;fontFamily=Courier New;fontSize=12;exitX=0.988;exitY=0.513;exitDx=0;exitDy=0;exitPerimeter=0;" parent="1" source="ITe-Zb040aeb4aDEISld-124" target="ITe-Zb040aeb4aDEISld-128" edge="1">
                    <mxGeometry x="19.999999999999943" y="20" as="geometry"/>
                </mxCell>
                <mxCell id="ITe-Zb040aeb4aDEISld-130" value="" style="endArrow=none;html=1;fontFamily=Courier New;fontStyle=1;labelBorderColor=none;spacing=2;fontSize=12;entryX=0.006;entryY=-0.003;entryDx=0;entryDy=0;entryPerimeter=0;" parent="1" edge="1">
                    <mxGeometry x="19.999999999999943" y="20" width="50" height="50" as="geometry">
                        <mxPoint x="20" y="360" as="sourcePoint"/>
                        <mxPoint x="20.30000000000001" y="279.94" as="targetPoint"/>
                    </mxGeometry>
                </mxCell>
                <mxCell id="ITe-Zb040aeb4aDEISld-131" value="" style="endArrow=none;html=1;fontFamily=Courier New;fontStyle=1;labelBorderColor=none;spacing=2;fontSize=12;" parent="1" edge="1">
                    <mxGeometry x="19.999999999999943" y="20" width="50" height="50" as="geometry">
                        <mxPoint x="180" y="360" as="sourcePoint"/>
                        <mxPoint x="180" y="280" as="targetPoint"/>
                    </mxGeometry>
                </mxCell>
                <mxCell id="ITe-Zb040aeb4aDEISld-132" value="" style="endArrow=none;html=1;fontFamily=Courier New;fontStyle=1;labelBorderColor=none;spacing=2;fontSize=12;entryX=1.005;entryY=0.02;entryDx=0;entryDy=0;entryPerimeter=0;" parent="1" target="ITe-Zb040aeb4aDEISld-146" edge="1">
                    <mxGeometry x="19.999999999999943" y="20" width="50" height="50" as="geometry">
                        <mxPoint x="20" y="280" as="sourcePoint"/>
                        <mxPoint x="200" y="280" as="targetPoint"/>
                    </mxGeometry>
                </mxCell>
                <mxCell id="ITe-Zb040aeb4aDEISld-133" value="" style="endArrow=none;html=1;fontFamily=Courier New;fontStyle=1;labelBorderColor=none;spacing=2;fontSize=12;entryX=0.99;entryY=0.008;entryDx=0;entryDy=0;entryPerimeter=0;" parent="1" target="ITe-Zb040aeb4aDEISld-147" edge="1">
                    <mxGeometry x="19.999999999999943" y="20" width="50" height="50" as="geometry">
                        <mxPoint x="20" y="300" as="sourcePoint"/>
                        <mxPoint x="200" y="300" as="targetPoint"/>
                    </mxGeometry>
                </mxCell>
                <mxCell id="ITe-Zb040aeb4aDEISld-134" value="" style="endArrow=none;html=1;fontFamily=Courier New;fontStyle=1;labelBorderColor=none;spacing=2;fontSize=12;entryX=0.998;entryY=0.962;entryDx=0;entryDy=0;entryPerimeter=0;" parent="1" target="ITe-Zb040aeb4aDEISld-147" edge="1">
                    <mxGeometry x="19.999999999999943" y="20" width="50" height="50" as="geometry">
                        <mxPoint x="20" y="320" as="sourcePoint"/>
                        <mxPoint x="200" y="320" as="targetPoint"/>
                    </mxGeometry>
                </mxCell>
                <mxCell id="ITe-Zb040aeb4aDEISld-135" value="" style="endArrow=none;html=1;fontFamily=Courier New;fontStyle=1;labelBorderColor=none;spacing=2;fontSize=12;" parent="1" edge="1">
                    <mxGeometry x="19.999999999999943" y="20" width="50" height="50" as="geometry">
                        <mxPoint x="70" y="340" as="sourcePoint"/>
                        <mxPoint x="69.76999999999998" y="280" as="targetPoint"/>
                    </mxGeometry>
                </mxCell>
                <mxCell id="ITe-Zb040aeb4aDEISld-136" value="" style="endArrow=none;html=1;fontFamily=Courier New;fontStyle=1;labelBorderColor=none;spacing=2;fontSize=12;" parent="1" edge="1">
                    <mxGeometry x="19.999999999999943" y="20" width="50" height="50" as="geometry">
                        <mxPoint x="150" y="340" as="sourcePoint"/>
                        <mxPoint x="149.76999999999998" y="280" as="targetPoint"/>
                    </mxGeometry>
                </mxCell>
                <mxCell id="ITe-Zb040aeb4aDEISld-137" value="" style="endArrow=none;html=1;fontFamily=Courier New;fontStyle=1;labelBorderColor=none;spacing=2;fontSize=12;" parent="1" edge="1">
                    <mxGeometry x="19.999999999999943" y="20" width="50" height="50" as="geometry">
                        <mxPoint x="110" y="340" as="sourcePoint"/>
                        <mxPoint x="109.76999999999998" y="280" as="targetPoint"/>
                    </mxGeometry>
                </mxCell>
                <mxCell id="ITe-Zb040aeb4aDEISld-138" value="(0,1)" style="text;html=1;resizable=0;autosize=1;align=center;verticalAlign=middle;points=[];fillColor=#fad7ac;strokeColor=#b46504;rounded=0;fontFamily=Courier New;fontStyle=1;labelBorderColor=none;spacing=2;fontSize=12;" parent="1" vertex="1">
                    <mxGeometry x="20" y="280" width="50" height="20" as="geometry"/>
                </mxCell>
                <mxCell id="ITe-Zb040aeb4aDEISld-139" value="(0,2)" style="text;html=1;resizable=0;autosize=1;align=center;verticalAlign=middle;points=[];fillColor=#fad7ac;strokeColor=#b46504;rounded=0;fontFamily=Courier New;fontStyle=1;labelBorderColor=none;spacing=2;fontSize=12;" parent="1" vertex="1">
                    <mxGeometry x="20" y="300" width="50" height="20" as="geometry"/>
                </mxCell>
                <mxCell id="ITe-Zb040aeb4aDEISld-140" value="&lt;div align=&quot;left&quot;&gt;UPDATE tbl&lt;/div&gt;&lt;div align=&quot;left&quot;&gt;SET col = 'c'&lt;/div&gt;&lt;div align=&quot;left&quot;&gt;WHERE col = 'b';&lt;/div&gt;" style="text;html=1;resizable=0;autosize=1;align=left;verticalAlign=middle;points=[];fillColor=none;strokeColor=none;rounded=0;fontFamily=Courier New;fontStyle=1;labelBorderColor=none;spacing=2;fontSize=12;" parent="1" vertex="1">
                    <mxGeometry x="240" y="280" width="130" height="50" as="geometry"/>
                </mxCell>
                <mxCell id="ITe-Zb040aeb4aDEISld-141" value="&lt;div&gt;...&lt;/div&gt;" style="text;html=1;resizable=0;autosize=1;align=center;verticalAlign=middle;points=[];fillColor=#fad7ac;strokeColor=#b46504;rounded=0;fontFamily=Courier New;fontStyle=1;labelBorderColor=none;spacing=2;fontSize=12;" parent="1" vertex="1">
                    <mxGeometry x="70" y="280" width="40" height="20" as="geometry"/>
                </mxCell>
                <mxCell id="ITe-Zb040aeb4aDEISld-142" value="&lt;div&gt;...&lt;/div&gt;" style="text;html=1;resizable=0;autosize=1;align=center;verticalAlign=middle;points=[];fillColor=#fad7ac;strokeColor=#b46504;rounded=0;fontFamily=Courier New;fontStyle=1;labelBorderColor=none;spacing=2;fontSize=12;" parent="1" vertex="1">
                    <mxGeometry x="70" y="300" width="40" height="20" as="geometry"/>
                </mxCell>
                <mxCell id="ITe-Zb040aeb4aDEISld-143" value="&lt;div&gt;...&lt;/div&gt;" style="text;html=1;resizable=0;autosize=1;align=center;verticalAlign=middle;points=[];fillColor=#fad7ac;strokeColor=#b46504;rounded=0;fontFamily=Courier New;fontStyle=1;labelBorderColor=none;spacing=2;fontSize=12;" parent="1" vertex="1">
                    <mxGeometry x="110" y="280" width="40" height="20" as="geometry"/>
                </mxCell>
                <mxCell id="ITe-Zb040aeb4aDEISld-144" value="&lt;div&gt;...&lt;/div&gt;" style="text;html=1;resizable=0;autosize=1;align=center;verticalAlign=middle;points=[];fillColor=#fad7ac;strokeColor=#b46504;rounded=0;fontFamily=Courier New;fontStyle=1;labelBorderColor=none;spacing=2;fontSize=12;" parent="1" vertex="1">
                    <mxGeometry x="110" y="300" width="40" height="20" as="geometry"/>
                </mxCell>
                <mxCell id="ITe-Zb040aeb4aDEISld-146" value="a" style="text;html=1;resizable=0;autosize=1;align=center;verticalAlign=middle;points=[];fillColor=#fad7ac;strokeColor=#b46504;rounded=0;fontFamily=Courier New;fontStyle=1;labelBorderColor=none;spacing=2;fontSize=12;" parent="1" vertex="1">
                    <mxGeometry x="150" y="280" width="30" height="20" as="geometry"/>
                </mxCell>
                <mxCell id="ITe-Zb040aeb4aDEISld-147" value="b" style="text;html=1;resizable=0;autosize=1;align=center;verticalAlign=middle;points=[];fillColor=#fad7ac;strokeColor=#b46504;rounded=0;fontFamily=Courier New;fontStyle=1;labelBorderColor=none;spacing=2;fontSize=12;" parent="1" vertex="1">
                    <mxGeometry x="150" y="300" width="30" height="20" as="geometry"/>
                </mxCell>
                <mxCell id="ITe-Zb040aeb4aDEISld-148" value="ctid" style="text;html=1;resizable=0;autosize=1;align=center;verticalAlign=middle;points=[];fillColor=none;strokeColor=none;rounded=0;fontFamily=Courier New;fontStyle=1;labelBorderColor=none;spacing=2;fontSize=12;" parent="1" vertex="1">
                    <mxGeometry x="20" y="260" width="50" height="20" as="geometry"/>
                </mxCell>
                <mxCell id="ITe-Zb040aeb4aDEISld-149" value="col" style="text;html=1;resizable=0;autosize=1;align=center;verticalAlign=middle;points=[];fillColor=none;strokeColor=none;rounded=0;fontFamily=Courier New;fontStyle=1;labelBorderColor=none;spacing=2;fontSize=12;" parent="1" vertex="1">
                    <mxGeometry x="145" y="260" width="40" height="20" as="geometry"/>
                </mxCell>
                <mxCell id="ITe-Zb040aeb4aDEISld-150" value="Not visible" style="text;html=1;align=center;verticalAlign=middle;resizable=0;points=[];autosize=1;strokeColor=none;fontFamily=Courier New;fontStyle=1;labelBorderColor=none;spacing=2;fontSize=10;" parent="1" vertex="1">
                    <mxGeometry x="260" y="260" width="90" height="20" as="geometry"/>
                </mxCell>
                <mxCell id="ITe-Zb040aeb4aDEISld-145" style="edgeStyle=none;rounded=0;orthogonalLoop=1;jettySize=auto;html=1;entryX=0;entryY=0.5;entryDx=0;entryDy=0;entryPerimeter=0;fontFamily=Courier New;fontSize=12;exitX=0.988;exitY=0.513;exitDx=0;exitDy=0;exitPerimeter=0;" parent="1" source="ITe-Zb040aeb4aDEISld-146" target="ITe-Zb040aeb4aDEISld-150" edge="1">
                    <mxGeometry x="19.999999999999943" y="20" as="geometry"/>
                </mxCell>
                <mxCell id="ITe-Zb040aeb4aDEISld-157" style="edgeStyle=none;rounded=0;orthogonalLoop=1;jettySize=auto;html=1;entryX=-0.015;entryY=0.5;entryDx=0;entryDy=0;entryPerimeter=0;fontFamily=Courier New;fontSize=12;exitX=0.997;exitY=0.513;exitDx=0;exitDy=0;exitPerimeter=0;" parent="1" source="ITe-Zb040aeb4aDEISld-147" target="ITe-Zb040aeb4aDEISld-150" edge="1">
                    <mxGeometry x="19.999999999999943" y="20" as="geometry"/>
                </mxCell>
                <mxCell id="ITe-Zb040aeb4aDEISld-151" value="" style="endArrow=none;html=1;fontFamily=Courier New;fontStyle=1;labelBorderColor=none;spacing=2;fontSize=12;entryX=0.998;entryY=0.962;entryDx=0;entryDy=0;entryPerimeter=0;" parent="1" edge="1">
                    <mxGeometry x="18.999999999999943" y="20" width="50" height="50" as="geometry">
                        <mxPoint x="20" y="339.99999999999994" as="sourcePoint"/>
                        <mxPoint x="179.94000000000005" y="339.23999999999995" as="targetPoint"/>
                    </mxGeometry>
                </mxCell>
                <mxCell id="ITe-Zb040aeb4aDEISld-153" value="(0,3)" style="text;html=1;resizable=0;autosize=1;align=center;verticalAlign=middle;points=[];fillColor=none;strokeColor=none;rounded=0;fontFamily=Courier New;fontStyle=1;labelBorderColor=none;spacing=2;fontSize=12;" parent="1" vertex="1">
                    <mxGeometry x="20" y="320" width="50" height="20" as="geometry"/>
                </mxCell>
                <mxCell id="ITe-Zb040aeb4aDEISld-154" value="&lt;div&gt;...&lt;/div&gt;" style="text;html=1;resizable=0;autosize=1;align=center;verticalAlign=middle;points=[];fillColor=none;strokeColor=none;rounded=0;fontFamily=Courier New;fontStyle=1;labelBorderColor=none;spacing=2;fontSize=12;" parent="1" vertex="1">
                    <mxGeometry x="70" y="320" width="40" height="20" as="geometry"/>
                </mxCell>
                <mxCell id="ITe-Zb040aeb4aDEISld-155" value="&lt;div&gt;...&lt;/div&gt;" style="text;html=1;resizable=0;autosize=1;align=center;verticalAlign=middle;points=[];fillColor=none;strokeColor=none;rounded=0;fontFamily=Courier New;fontStyle=1;labelBorderColor=none;spacing=2;fontSize=12;" parent="1" vertex="1">
                    <mxGeometry x="110" y="320" width="40" height="20" as="geometry"/>
                </mxCell>
                <mxCell id="ITe-Zb040aeb4aDEISld-156" value="c" style="text;html=1;resizable=0;autosize=1;align=center;verticalAlign=middle;points=[];fillColor=none;strokeColor=none;rounded=0;fontFamily=Courier New;fontStyle=1;labelBorderColor=none;spacing=2;fontSize=12;" parent="1" vertex="1">
                    <mxGeometry x="150" y="320" width="30" height="20" as="geometry"/>
                </mxCell>
            </root>
        </mxGraphModel>
    </diagram>
</mxfile>